<svg xmlns="http://www.w3.org/2000/svg" xmlns:xlink="http://www.w3.org/1999/xlink" width="61" height="61" viewBox="0 0 61 61">
  <metadata><?xpacket begin="﻿" id="W5M0MpCehiHzreSzNTczkc9d"?>
<x:xmpmeta xmlns:x="adobe:ns:meta/" x:xmptk="Adobe XMP Core 5.6-c142 79.160924, 2017/07/13-01:06:39        ">
   <rdf:RDF xmlns:rdf="http://www.w3.org/1999/02/22-rdf-syntax-ns#">
      <rdf:Description rdf:about=""/>
   </rdf:RDF>
</x:xmpmeta>
                                                                                                    
                                                                                                    
                                                                                                    
                                                                                                    
                                                                                                    
                                                                                                    
                                                                                                    
                                                                                                    
                                                                                                    
                                                                                                    
                                                                                                    
                                                                                                    
                                                                                                    
                                                                                                    
                                                                                                    
                                                                                                    
                                                                                                    
                                                                                                    
                                                                                                    
                                                                                                    
                           
<?xpacket end="w"?></metadata>
<defs>
    <style>
      .cls-1 {
        fill-rule: evenodd;
        filter: url(#filter);
      }
    </style>
    <filter id="filter" x="1782" y="1919" width="61" height="61" filterUnits="userSpaceOnUse">
      <feFlood result="flood" flood-color="#fff"/>
      <feComposite result="composite" operator="in" in2="SourceGraphic"/>
      <feBlend result="blend" in2="SourceGraphic"/>
    </filter>
  </defs>
  <path id="Forma_1" data-name="Forma 1" class="cls-1" d="M1824.78,1957.43a23.148,23.148,0,0,0,6.61-15.6,18.887,18.887,0,0,0-37.76,0,21,21,0,0,0,1.48,7.51,18.855,18.855,0,0,0,12.64,10.49,6.141,6.141,0,0,1,4.76-2.2,5.987,5.987,0,1,1,0,11.97,6.155,6.155,0,0,1-5.55-3.42,25.674,25.674,0,0,1-12.69-6.81c-7.44,3.09-12.26,8.03-12.26,13.59,0,9.38,61,9.38,61,0C1843.01,1966.02,1835.51,1960.05,1824.78,1957.43Zm-16.17,6.91a3.881,3.881,0,1,0,.2-2.12,20.9,20.9,0,0,1-17.57-20.39c0-11.42,9.54-20.72,21.27-20.72s21.27,9.3,21.27,20.72h2.18c0-12.59-10.52-22.84-23.45-22.84s-23.45,10.25-23.45,22.84A23.054,23.054,0,0,0,1808.61,1964.34Z" transform="translate(-1782 -1919)"/>
</svg>
