<svg xmlns="http://www.w3.org/2000/svg" xmlns:xlink="http://www.w3.org/1999/xlink" width="52" height="52" viewBox="0 0 52 52">
  <metadata><?xpacket begin="﻿" id="W5M0MpCehiHzreSzNTczkc9d"?>
<x:xmpmeta xmlns:x="adobe:ns:meta/" x:xmptk="Adobe XMP Core 5.6-c142 79.160924, 2017/07/13-01:06:39        ">
   <rdf:RDF xmlns:rdf="http://www.w3.org/1999/02/22-rdf-syntax-ns#">
      <rdf:Description rdf:about=""/>
   </rdf:RDF>
</x:xmpmeta>
                                                                                                    
                                                                                                    
                                                                                                    
                                                                                                    
                                                                                                    
                                                                                                    
                                                                                                    
                                                                                                    
                                                                                                    
                                                                                                    
                                                                                                    
                                                                                                    
                                                                                                    
                                                                                                    
                                                                                                    
                                                                                                    
                                                                                                    
                                                                                                    
                                                                                                    
                                                                                                    
                           
<?xpacket end="w"?></metadata>
<defs>
    <style>
      .cls-1 {
        fill-rule: evenodd;
        filter: url(#filter);
      }
    </style>
    <filter id="filter" x="1787" y="1746" width="52" height="52" filterUnits="userSpaceOnUse">
      <feFlood result="flood" flood-color="#fff"/>
      <feComposite result="composite" operator="in" in2="SourceGraphic"/>
      <feBlend result="blend" in2="SourceGraphic"/>
    </filter>
  </defs>
  <path id="Forma_1" data-name="Forma 1" class="cls-1" d="M1802.6,1787.6a5.2,5.2,0,1,0,5.2,5.2A5.215,5.215,0,0,0,1802.6,1787.6ZM1787,1746v5.2h5.2l9.36,19.76-3.64,6.24a9.238,9.238,0,0,0-.52,2.6,5.215,5.215,0,0,0,5.2,5.2h31.2v-5.2h-30.16a0.559,0.559,0,0,1-.52-0.52v-0.26l2.34-4.42h19.24a4.742,4.742,0,0,0,4.42-2.6l9.36-16.9a1.431,1.431,0,0,0,.52-1.3,2.456,2.456,0,0,0-2.6-2.6h-38.48l-2.34-5.2H1787Zm41.6,41.6a5.2,5.2,0,1,0,5.2,5.2A5.215,5.215,0,0,0,1828.6,1787.6Z" transform="translate(-1787 -1746)"/>
</svg>
